<svg width="198" height="37" viewBox="0 0 198 37" fill="none" xmlns="http://www.w3.org/2000/svg">
<g clip-path="url(#clip0_414_5230)">
<path d="M24.192 16.8763C24.0746 17.2596 23.9428 17.6459 23.8001 18.0334L23.8261 7.99224L25.8533 6.49402C25.8297 6.88413 25.797 7.39808 25.7731 7.6844C25.7669 7.75635 25.7598 7.8569 25.7507 7.98428C25.664 9.2068 25.3986 12.9271 24.192 16.8763ZM19.2108 11.4033V25.9249C20.0986 24.8528 20.9175 23.6922 21.6417 22.4888V9.60664L19.2108 11.4033ZM14.4224 14.9423V28.3806C14.9712 28.9417 15.4312 29.3899 15.6759 29.6255C15.9177 29.3981 16.3674 28.9691 16.9029 28.4319V13.1091L14.4224 14.9423ZM9.69336 18.4373V22.39C10.4338 23.6317 11.2753 24.8298 12.1903 25.9337V16.5918L9.69336 18.4373Z" fill="#E0092C"/>
<path d="M8.80238 15.7298C8.87993 15.5762 9.11583 15.5128 9.22493 15.6567C9.4623 15.5399 9.56491 15.5302 9.66133 15.5827L9.92819 15.6458C10.0862 15.4783 10.3192 15.5382 10.418 15.7546C10.4678 15.8655 10.3033 15.9427 10.2528 15.8318C9.91551 15.8952 9.81614 15.9008 9.73033 15.8578L9.46967 15.7794C9.37678 15.8855 9.23259 16.0023 9.11848 15.8383C8.90942 15.9227 8.74754 15.8386 8.80238 15.7298ZM9.69937 16.2688C9.64393 16.3785 9.80552 16.462 10.0146 16.3785C10.0671 16.4525 10.1635 16.4782 10.3658 16.3181L10.627 16.3959C10.7131 16.4413 10.8119 16.434 11.1489 16.3714C11.2 16.482 11.3651 16.4057 11.3141 16.2936C11.2156 16.0766 10.9832 16.0173 10.5577 16.1223C10.4625 16.0698 10.3584 16.0801 10.1216 16.1957C10.0134 16.0515 9.77633 16.1155 9.69937 16.2688ZM8.52373 15.8315C8.57415 15.9424 8.73987 15.8652 8.68945 15.7543C8.58919 15.5384 8.35713 15.4777 7.93311 15.5824C7.8364 15.5299 7.73408 15.5393 7.49582 15.6564C7.38672 15.5125 7.15112 15.5762 7.07387 15.7295C7.01873 15.8383 7.18091 15.9224 7.38908 15.838C7.44127 15.9132 7.53858 15.9377 7.73998 15.7791L8.00123 15.8575C8.08733 15.9008 8.18611 15.8949 8.52373 15.8315ZM9.6401 16.6185C9.54456 16.5661 9.44106 16.5755 9.20429 16.6917C9.09607 16.5475 8.85929 16.6115 8.78145 16.7657C8.72749 16.8742 8.88789 16.9576 9.09696 16.8736C9.21136 17.0373 9.35555 16.9205 9.44785 16.8143L9.7091 16.8925C9.7952 16.9364 9.89428 16.9299 10.2319 16.8671C10.2826 16.9777 10.4477 16.901 10.3964 16.7899C10.2974 16.5728 10.0638 16.5139 9.6401 16.6185ZM11.7443 15.1699C11.7953 15.2439 11.8935 15.2692 12.0955 15.1106L12.3558 15.1884C12.4419 15.2333 12.5416 15.2262 12.8789 15.1628C12.9293 15.274 13.0939 15.1973 13.0438 15.0861C12.9447 14.8697 12.712 14.8095 12.2871 14.9136C12.191 14.8611 12.089 14.8709 11.851 14.9885C11.7419 14.8434 11.5069 14.9077 11.4297 15.0614C11.3727 15.1705 11.5364 15.2539 11.7443 15.1699ZM8.57268 16.3181L8.83364 16.3959C8.91974 16.4413 9.01882 16.434 9.35644 16.3714C9.40716 16.482 9.5714 16.4057 9.52156 16.2936C9.4219 16.0766 9.18895 16.0173 9.03208 16.1845L8.76523 16.1223C8.66881 16.0698 8.56531 16.0801 8.32853 16.1957C8.22061 16.0518 7.98383 16.1158 7.90657 16.2688C7.85202 16.3785 8.01361 16.462 8.22179 16.3785C8.33531 16.5407 8.48039 16.4254 8.57268 16.3181ZM10.8034 16.9175L11.131 16.6755L10.975 16.6917C10.8665 16.5475 10.6309 16.6115 10.5527 16.7657C10.5061 16.8586 10.6441 16.9556 10.8034 16.9175ZM8.3589 17.3321L8.62045 17.41C8.70685 17.4548 8.80563 17.4474 9.14236 17.3843C9.19338 17.4961 9.3585 17.4188 9.30808 17.3071C9.20812 17.0909 8.97517 17.0308 8.81742 17.1986L8.55145 17.1357C8.45591 17.0836 8.35212 17.0933 8.11534 17.2098C8.00683 17.0653 7.77035 17.1293 7.6925 17.2823C7.63707 17.3917 7.79865 17.4751 8.00771 17.3911C8.05961 17.4654 8.15692 17.4914 8.3589 17.3321ZM7.71786 10.8969C7.28617 10.8969 6.92644 11.1322 6.79168 11.4607L8.65996 11.4569C8.5258 11.1287 8.14955 10.8969 7.71786 10.8969ZM9.36941 9.12744H11.2324L10.3413 7.26535V6.7054H10.5669V6.62136H10.3413L10.2593 6.3725V6.62136L10.1272 6.66677L10.0125 6.7054H10.2593V7.26535L9.36941 9.12744ZM10.057 17.2098C9.95001 17.0653 9.71293 17.1293 9.63479 17.2835C9.58024 17.3917 9.74154 17.4751 9.79756 17.366C9.81761 17.3253 9.91521 17.3427 9.99542 17.5147L10.487 17.1514C10.3935 17.1139 10.2649 17.108 10.057 17.2098ZM26.4608 5.71229L26.4508 5.88803L26.444 6.00922C26.4437 6.01423 26.4425 6.0331 26.4411 6.05905C26.4278 6.29023 26.3703 7.27597 26.3323 7.73154C26.3261 7.80201 26.3193 7.9002 26.3104 8.02405C26.2223 9.2622 25.9536 13.0306 24.7282 17.0405C24.4881 17.8254 24.1918 18.6216 23.8501 19.4171C22.7307 22.0229 21.1037 24.623 19.1973 26.8074C17.6805 28.5465 15.8807 30.2019 15.8627 30.2187L15.6704 30.3953L15.4802 30.2164C15.4626 30.1998 13.7096 28.5453 12.1942 26.8074C10.3652 24.7109 8.79295 22.2311 7.67982 19.7315C7.63323 19.6268 7.58753 19.5221 7.54241 19.4174C7.53268 19.3947 7.52325 19.372 7.51352 19.349C7.18415 18.5762 6.89754 17.803 6.6643 17.0408C5.43559 13.0221 5.16903 9.25424 5.08116 8.01609C5.0726 7.89608 5.06582 7.80054 5.06022 7.73213C5.01717 7.22555 4.95112 6.05876 4.94846 6.00951L4.93166 5.71288H26.4608V5.71229ZM9.36941 11.6362V9.39666H11.2324V12.3303L12.894 11.2552L16.2319 12.0186V11.1564L16.0502 11.1921L15.9284 11.597L15.794 11.5984L15.8388 11.1098C15.8388 11.1098 15.4832 11.3333 15.3131 11.4221L15.0934 11.4103L15.7621 10.9774L15.7332 10.7038L15.3986 10.7469L15.2791 10.6127L15.6881 10.3506L15.7789 10.2173L15.7978 10.3107L15.922 10.3479L15.8476 10.4107L16.07 10.6643L16.2322 10.6525V9.56738L16.0505 9.60454L15.9287 10.0082L15.7943 10.0103L15.8391 9.52197C15.8391 9.52197 15.4835 9.74489 15.3133 9.83424L15.0937 9.82186L15.7624 9.38987L15.7335 9.11565L15.3989 9.1587L15.2794 9.02424L15.6884 8.7624L15.7792 8.62941L15.7981 8.7217L15.9223 8.75915L15.8479 8.82196L16.0703 9.07613L16.2325 9.06464V8.62233C15.8244 8.54213 15.5121 8.18917 15.4776 7.77076H15.0129V7.21051H15.4567C15.5448 6.85195 15.8824 6.63847 16.2325 6.53821V6.3147H16.765V6.53821C17.1483 6.66088 17.4081 6.7632 17.5402 7.21051H17.9831V7.77076H17.5181C17.4845 8.18917 17.1731 8.54184 16.765 8.62233L16.7606 9.02748L17.0065 9.01185L17.5744 9.13511L17.9931 9.1186L17.557 9.32323L17.3046 9.24922L17.5776 9.66882L17.5358 9.99229L17.4346 10.0014L17.411 9.69624L17.1607 9.50192L17.2494 9.79473C17.2494 9.79473 17.1604 9.95455 17.0976 10.0253L16.9516 10.0159C16.9788 9.97342 17.0887 9.78264 17.0887 9.78264L16.8369 9.4459L16.7567 9.46182L16.7455 10.6177L17.0062 10.5994L17.5741 10.7236L17.9928 10.7068L17.5564 10.9117L17.304 10.8374L17.577 11.257L17.5352 11.5807L17.434 11.5899L17.4104 11.2844L17.1601 11.0904L17.2489 11.3832C17.2489 11.3832 17.1598 11.5427 17.097 11.6135L16.951 11.6049C16.9782 11.5619 17.0882 11.3714 17.0882 11.3714L16.8369 11.0341L16.7402 11.0535L16.7299 12.1543L17.0787 12.2799L17.0834 12.2816L25.2171 6.27401H5.52641C5.54941 6.66412 5.59069 7.33996 5.61988 7.68436C5.62607 7.75513 5.63285 7.85302 5.6417 7.97628C5.68711 8.61703 5.78235 9.94806 6.03594 11.6362H9.36941ZM14.4205 13.2627C13.921 13.2627 13.5173 14.0898 13.5088 14.9183L15.0285 13.7952C14.8666 13.536 14.654 13.2627 14.4205 13.2627ZM7.82106 18.6245C8.00712 18.5414 8.10384 18.534 8.18817 18.5806L8.45061 18.6564L8.87197 18.345L8.68001 18.3025C8.58713 18.409 8.44235 18.5255 8.32824 18.3624C8.12035 18.4458 7.95788 18.3624 8.01302 18.2539C8.09087 18.0994 8.32647 18.036 8.43586 18.1805C8.67264 18.0637 8.77584 18.054 8.87197 18.1059L9.07454 18.1958L9.53306 17.857L9.25618 17.7626C9.16418 17.8697 9.01911 17.9861 8.90529 17.8228C8.69652 17.9056 8.53405 17.824 8.58949 17.7149C8.66733 17.5606 8.90382 17.4973 9.01203 17.6417C9.2497 17.525 9.35231 17.5147 9.44814 17.5668L9.78252 17.6724L9.7837 17.6727L9.99542 17.5147L12.2037 15.8829C11.8961 15.9362 11.777 15.8988 11.6944 15.8575L11.4335 15.7791C11.2318 15.9377 11.1333 15.9132 11.0823 15.838C10.8741 15.9224 10.7122 15.8383 10.7671 15.7295C10.844 15.5759 11.0808 15.5125 11.1884 15.6564C11.4261 15.5396 11.5299 15.5299 11.626 15.5824L11.8914 15.6455C12.0356 15.4942 12.2453 15.5951 12.3567 15.7696L13.2251 15.1277C13.0567 12.6918 11.4308 12.5473 11.2324 15.2645H6.75571C6.78225 15.3707 6.80967 15.4768 6.83768 15.5839C6.90786 15.6145 6.96506 15.6726 7.00251 15.7543C7.03524 15.8265 6.97686 15.8832 6.91818 15.8843C6.94236 15.9731 6.96477 16.0612 6.98954 16.1506L7.09687 16.2152C7.39675 16.0173 7.62881 16.0763 7.72877 16.2936C7.77919 16.4057 7.61436 16.482 7.56423 16.3714C7.25639 16.4284 7.1467 16.4393 7.06443 16.4062C7.08566 16.48 7.10719 16.5537 7.12901 16.6274C7.16292 16.6401 7.19388 16.6595 7.21776 16.692C7.45602 16.5755 7.55981 16.5664 7.65417 16.6188C8.07907 16.5136 8.31143 16.5737 8.41168 16.7902C8.4624 16.9013 8.29609 16.978 8.24626 16.8674C7.90864 16.9302 7.80956 16.9367 7.72405 16.8928L7.46221 16.8146C7.35193 16.9016 7.27556 16.9299 7.21806 16.9288C7.23723 16.9913 7.25875 17.0541 7.2788 17.1169C7.41031 17.0847 7.54949 17.1523 7.62055 17.3074C7.67186 17.4191 7.50674 17.4964 7.45513 17.3846L7.35311 17.3478C7.37935 17.4271 7.4056 17.5061 7.43302 17.5857L7.62232 17.6305C7.78008 17.463 8.01273 17.5226 8.11151 17.7396C8.16193 17.8502 7.99651 17.9278 7.94668 17.8166C7.7214 17.8479 7.60876 17.8679 7.53327 17.8667C7.55863 17.9369 7.58222 18.0068 7.60817 18.077C7.7158 18.0826 7.819 18.1519 7.87738 18.2787C7.92515 18.3851 7.77595 18.4582 7.71963 18.3656C7.75354 18.4517 7.78656 18.5381 7.82106 18.6245ZM7.97823 19.0055L8.20763 18.836L7.99621 18.7767L7.94933 18.9368C7.95877 18.9598 7.9685 18.9828 7.97823 19.0055ZM25.8525 6.49398L23.8253 7.9922L21.6409 9.6066L19.21 11.4032L16.9021 13.109L14.4217 14.9422L12.1895 16.592L9.69259 18.4373L8.20734 19.5351C8.63726 20.4969 9.13558 21.4558 9.69259 22.3903C10.433 23.632 11.2746 24.83 12.1895 25.934C12.3308 26.1044 12.4732 26.2728 12.6177 26.4382C13.2236 27.1332 13.8679 27.8144 14.4217 28.3808C14.9704 28.9419 15.4304 29.3901 15.6752 29.6257C15.9169 29.3984 16.3666 28.9694 16.9021 28.4321C17.4765 27.8557 18.1494 27.1545 18.7742 26.4382C18.9213 26.2696 19.0667 26.0982 19.2103 25.9249C20.0982 24.8527 20.917 23.6921 21.6412 22.4888C22.2451 21.4853 22.7826 20.4524 23.2391 19.4171C23.4425 18.9554 23.6295 18.4933 23.7993 18.033C23.9424 17.6456 24.0742 17.2593 24.1912 16.876C25.3978 12.9268 25.6632 9.20647 25.7502 7.98395C25.7593 7.85686 25.7664 7.75631 25.7726 7.68407C25.7962 7.39805 25.8289 6.88409 25.8525 6.49398ZM10.9832 28.512C11.2339 28.944 11.2999 29.3377 11.2999 29.6617C11.2999 29.9221 11.2315 30.0919 11.1233 30.1394C11.0059 30.1916 10.8951 30.1807 10.4758 29.7107L9.60914 28.7382V25.4599L10.6043 26.5753C11.1053 27.1379 11.2339 27.7849 11.2339 28.1225C11.2336 28.5928 11.0687 28.5392 10.9832 28.512ZM10.0208 27.2034L10.5218 27.766C10.6895 27.955 10.8237 27.9998 10.8237 27.7398C10.8237 27.4697 10.7037 27.2538 10.5105 27.0365L10.0208 26.486V27.2034ZM10.8729 29.1097C10.8729 28.8216 10.7187 28.5392 10.5645 28.367L10.0208 27.756V28.6332L10.5445 29.2218C10.752 29.4544 10.8729 29.4432 10.8729 29.1097ZM11.9138 31.3513L12.3414 31.8308V28.5545L11.9138 28.075V31.3513ZM13.9251 30.0666L13.4395 29.619V32.8935L15.0545 34.4044V33.7633L13.9254 32.6991V30.0666H13.9251ZM17.6481 32.056C17.6481 32.3155 17.5726 32.6346 17.4517 32.9165C17.3226 33.2214 17.199 33.4522 16.7328 33.8898L15.7722 34.7971V31.5173L16.8753 30.4764C17.4329 29.9519 17.5747 30.3207 17.5747 30.6581C17.5747 31.1284 17.3922 31.4339 17.296 31.5913C17.575 31.4802 17.6481 31.7311 17.6481 32.056ZM16.2268 32.3715L16.7841 31.8464C16.9714 31.6704 17.1194 31.425 17.1194 31.1647C17.1194 30.8954 16.987 30.9382 16.7724 31.1414L16.2268 31.6538V32.3715ZM17.1731 32.4296C17.1731 32.1418 17.0026 32.1934 16.8325 32.3544L16.2268 32.9235V33.8005L16.8104 33.252C17.0407 33.0347 17.1731 32.7631 17.1731 32.4296ZM19.4562 28.0293L20.2571 30.5555L19.7411 31.0408L19.5957 30.5015L18.7574 31.2914L18.5991 32.1174L18.0993 32.5886L18.9087 28.5456L19.4562 28.0293ZM19.463 30.0613L19.1811 29.0286L18.8839 30.6068L19.463 30.0613ZM22.2495 26.2026C22.5444 27.5685 21.8647 28.4486 21.5928 28.7193C21.3207 28.9909 20.5694 29.539 20.2727 28.1729C19.9764 26.8068 20.6569 25.9269 20.9282 25.6554C21.2001 25.3841 21.9526 24.8365 22.2495 26.2026ZM21.8184 26.6305C21.643 25.8161 21.272 25.9387 21.04 26.1705C20.8076 26.4023 20.5251 26.9301 20.7029 27.7448C20.8784 28.5598 21.2496 28.4362 21.4808 28.2048C21.7123 27.9739 21.9956 27.4455 21.8184 26.6305ZM28.9118 10.3529L28.0472 11.4156L27.1821 10.3529H26.4806L27.6491 11.8647L26.4806 13.4001H27.1821L28.0472 12.3365L28.9118 13.4001H29.6138L28.4456 11.8647L29.6138 10.3529H28.9118ZM4.14289 10.3529L3.27834 11.4156L2.4132 10.3529H1.712L2.88056 11.8647L1.712 13.4001H2.41349L3.27863 12.3365L4.14318 13.4001H4.84526L3.677 11.8647L4.84526 10.3529H4.14289ZM2.67415 4.57941H2.36159L3.26271 2.56576H3.58175L4.46842 4.57941H4.14466L3.85952 3.91654H2.96961L2.67415 4.57941ZM3.1023 3.62699H3.72978L3.41633 2.9252L3.1023 3.62699ZM5.38546 4.57941H5.67266V2.85561H6.37209V2.56576H4.68603V2.85561H5.38546V4.57941ZM7.23251 3.66945H8.40225V4.57941H8.68945V2.56576H8.40225V3.37959H7.23251V2.56576H6.9456V4.57941H7.23251V3.66945ZM11.0106 4.29044H9.80021V2.56576H9.5136V4.57941H11.0106V4.29044ZM13.0986 4.29044H11.7042V3.67534H12.3818V3.3846H11.7042V2.85561H13.0488V2.56576H11.4164V4.57941H13.0986V4.29044ZM14.197 4.57941H14.4845V2.85561H15.1836V2.56576H13.4981V2.85561H14.197V4.57941ZM16.0095 2.56576H15.7223V4.57941H16.0098L16.0095 2.56576ZM17.6578 4.62334C18.2287 4.62334 18.4652 4.42667 18.6539 4.22055L18.4631 4.01031C18.3753 4.1147 18.1529 4.33319 17.7271 4.33319C17.1816 4.33319 16.8944 3.94869 16.8944 3.58895C16.8944 3.08679 17.2831 2.81256 17.6549 2.81256C18.0648 2.81256 18.3178 3.04315 18.4077 3.11863L18.6226 2.93375C18.5271 2.83939 18.198 2.52212 17.6522 2.52212C17.0619 2.52212 16.6075 2.99508 16.6075 3.58865C16.6075 4.20699 17.1182 4.62334 17.6578 4.62334ZM21.1022 4.62334C21.6739 4.62334 21.9101 4.42667 22.0991 4.22055L21.9078 4.01031C21.8196 4.1147 21.5967 4.33319 21.1718 4.33319C20.6266 4.33319 20.3391 3.94869 20.3391 3.58895C20.3391 3.08679 20.7274 2.81256 21.0992 2.81256C21.5091 2.81256 21.7615 3.04315 21.852 3.11863L22.0682 2.93375C21.972 2.83939 21.6424 2.52212 21.0969 2.52212C20.5071 2.52212 20.0519 2.99508 20.0519 3.58865C20.0516 4.20699 20.5635 4.62334 21.1022 4.62334ZM24.2009 4.29044H22.992V2.56576H22.7039V4.57941H24.2007L24.2009 4.29044ZM25.5391 4.62334C26.2694 4.62334 26.4125 4.20139 26.4125 3.81953V2.56576H26.1261V3.81983C26.1261 4.11499 26.0038 4.33319 25.5391 4.33319C25.0732 4.33319 24.9511 4.11499 24.9511 3.81983V2.56576H24.6642V3.81983C24.6642 4.20168 24.8072 4.62334 25.5391 4.62334ZM28.3141 4.57941H27.1768V2.56576H28.3141C28.6101 2.56576 28.8985 2.73236 28.8985 3.11333C28.8985 3.3333 28.7926 3.44682 28.721 3.51906C28.8324 3.57037 28.9931 3.74198 28.9931 3.99468C28.9934 4.37772 28.6994 4.57941 28.3141 4.57941ZM27.4631 3.40849H28.3141C28.5101 3.40849 28.6107 3.29261 28.6107 3.11333C28.6107 2.95233 28.5163 2.85561 28.3141 2.85561H27.4631V3.40849ZM27.4631 4.29044H28.3141C28.5815 4.29044 28.7071 4.18753 28.7071 3.99498C28.7071 3.81482 28.6148 3.69952 28.3141 3.69952H27.4631V4.29044ZM31.3249 3.62551C31.3241 3.65706 31.3235 3.72606 31.3226 3.82838C31.2866 7.98159 30.8664 12.011 30.1068 15.4812C28.7519 21.6699 26.0164 26.6765 21.2369 31.7152C18.9281 34.149 15.9279 36.5197 15.8978 36.5433L15.6822 36.7146L15.4634 36.5442C15.4301 36.5174 12.4054 34.0862 10.0974 31.6518C5.31616 26.614 2.58068 21.6077 1.22812 15.4193C0.468544 11.9476 0.0480634 7.9176 0.0114998 3.76557C0.0106152 3.66355 0.0100255 3.59514 0.00884602 3.5627C0 3.30941 0 1.81326 0 1.17428V0.893269L31.3356 0.89209L31.3359 1.1728C31.3359 1.25979 31.337 3.30794 31.3249 3.62551ZM30.7741 1.45381L0.561722 1.45499C0.561722 2.14675 0.562607 3.33241 0.569979 3.54324C0.571158 3.57774 0.572043 3.65146 0.572927 3.76056C0.609196 7.87455 1.02555 11.8647 1.77687 15.2993C3.10643 21.3818 5.79827 26.3061 10.5049 31.2652C12.5151 33.3853 15.0786 35.506 15.6813 35.9975C16.2832 35.5142 18.8232 33.4437 20.8297 31.3286C25.5346 26.3686 28.2268 21.4441 29.5587 15.3612C30.3097 11.9284 30.7258 7.93854 30.7612 3.82366C30.762 3.71397 30.7626 3.63996 30.7641 3.60546C30.7727 3.36603 30.7738 2.04119 30.7741 1.45381Z" fill="#1C1C1C"/>
<path d="M38.2228 36.64H37.7705V0.907349H38.2228V36.64ZM88.662 20.9784H93.992V23.2766H86.3656V13.5737H88.662V20.9784ZM79.8198 17.0785H75.2853V13.5737H72.9895V23.2766H75.2853V19.3767H79.8198V23.2769H82.1195V13.5737H79.8198V17.0785ZM60.4019 15.8725H63.8167V23.2766H66.1141V15.8725H69.5292V13.5737H60.4019V15.8725ZM99.3757 19.4123H102.737V17.1153H99.3757V15.8725H105.741V13.5737H97.079V23.2766H105.956V20.9784H99.376L99.3757 19.4123ZM53.3248 9.42518L59.4934 23.2769H56.8319L54.9165 18.8595H49.2114L47.226 23.2769H44.6359L50.8945 9.42518H53.3248ZM53.844 16.4893L52.076 12.572L50.3033 16.4893H53.844ZM165.479 13.5737H163.183V23.2766H170.81V20.9784H165.479V13.5737ZM181.261 19.4274C181.261 20.2459 181.261 21.265 178.868 21.265C176.66 21.265 176.478 20.3957 176.478 19.4274V13.5737H174.178V19.4271C174.178 22.0555 175.881 23.5632 178.851 23.5632C182.948 23.5632 183.559 20.9713 183.559 19.4271V13.5737H181.261V19.4274ZM158.747 19.1237C157.948 20.0672 156.469 21.1916 153.961 21.1916C150.467 21.1916 148.582 18.7524 148.582 16.4575C148.582 13.2422 151.105 11.5069 153.478 11.5069C156.011 11.5069 157.613 12.8406 158.297 13.41L158.543 13.6129L160.313 12.1041L160.14 11.9366C157.759 9.62392 155.193 9.13857 153.46 9.13857C149.397 9.13857 146.214 12.3535 146.214 16.4575C146.214 20.9053 149.917 23.5635 153.496 23.5635C157.49 23.5635 159.135 22.1416 160.363 20.8097L160.5 20.6611L158.907 18.935L158.747 19.1237ZM197.707 20.1601C197.707 22.0821 196.363 23.2766 194.198 23.2766H187.933V13.5737H194.198C196.132 13.5737 197.242 14.5854 197.242 16.3499C197.242 16.9452 197.041 17.5441 196.708 17.9701C197.206 18.4004 197.707 19.0417 197.707 20.1601ZM190.231 17.0434H194.197C194.541 17.0434 194.942 16.8856 194.942 16.4398C194.942 16.1588 194.854 15.8725 194.197 15.8725H190.231V17.0434ZM195.409 20.1413C195.409 19.5666 195.07 19.3428 194.198 19.3428H190.231V20.9787H194.198C195.283 20.9784 195.409 20.5004 195.409 20.1413ZM120.431 23.2766H122.728V13.5737H120.431V23.2766ZM108.074 15.8725H111.488V23.2766H113.785V15.8725H117.202V13.5737H108.074V15.8725ZM135.929 20.0041C135.172 20.5859 133.735 21.265 132.182 21.265C129.8 21.265 128.554 19.8629 128.554 18.4782C128.554 17.0564 129.829 15.5856 131.964 15.5856C133.723 15.5856 134.976 16.6152 135.511 17.0552L135.697 17.2085L137.041 15.2052L136.682 14.9486C135.708 14.2477 134.374 13.2882 132.056 13.2882C129.245 13.2882 126.257 15.089 126.257 18.426C126.257 21.4988 128.631 23.5635 132.164 23.5635C133.583 23.5635 135.638 23.1023 137.031 22.0718L137.178 21.9635L136.141 19.8411L135.929 20.0041Z" fill="#1C1C1C"/>
</g>
<defs>
<clipPath id="clip0_414_5230">
<rect width="197.707" height="35.8223" fill="white" transform="translate(0 0.89209)"/>
</clipPath>
</defs>
</svg>
